<svg id="Capa_1" data-name="Capa 1" xmlns="http://www.w3.org/2000/svg" viewBox="0 0 361.77 361.77"><defs><style>.cls-1{fill:#6368aa;}</style></defs><title>calendar</title><path class="cls-1" d="M323.89,43.77h-27.5V25a25,25,0,0,0-25-25h-1a25,25,0,0,0-25,25V43.77h-129V25a25,25,0,0,0-25-25h-1a25,25,0,0,0-25,25V43.77H37.89a25,25,0,0,0-25,25v268a25,25,0,0,0,25,25h286a25,25,0,0,0,25-25v-268A25,25,0,0,0,323.89,43.77Zm-17,278.5h-252v-203h252Z"/><path class="cls-1" d="M89.14,211.13h43.49a4,4,0,0,0,4-4V163.64a4,4,0,0,0-4-4H89.14a4,4,0,0,0-4,4v43.49A4,4,0,0,0,89.14,211.13Z"/><path class="cls-1" d="M159.14,211.13h43.49a4,4,0,0,0,4-4V163.64a4,4,0,0,0-4-4H159.14a4,4,0,0,0-4,4v43.49A4,4,0,0,0,159.14,211.13Z"/><path class="cls-1" d="M229.14,211.13h43.49a4,4,0,0,0,4-4V163.64a4,4,0,0,0-4-4H229.14a4,4,0,0,0-4,4v43.49A4,4,0,0,0,229.14,211.13Z"/><path class="cls-1" d="M89.14,281.13h43.49a4,4,0,0,0,4-4V233.64a4,4,0,0,0-4-4H89.14a4,4,0,0,0-4,4v43.49A4,4,0,0,0,89.14,281.13Z"/><path class="cls-1" d="M159.14,281.13h43.49a4,4,0,0,0,4-4V233.64a4,4,0,0,0-4-4H159.14a4,4,0,0,0-4,4v43.49A4,4,0,0,0,159.14,281.13Z"/><path class="cls-1" d="M229.14,281.13h43.49a4,4,0,0,0,4-4V233.64a4,4,0,0,0-4-4H229.14a4,4,0,0,0-4,4v43.49A4,4,0,0,0,229.14,281.13Z"/></svg>