<svg id="Capa_1" data-name="Capa 1" xmlns="http://www.w3.org/2000/svg" viewBox="0 0 512 512"><defs><style>.cls-1{fill:#fff;}</style></defs><title>dollar</title><path class="cls-1" d="M327.21,232.58c-20.1-11.1-41.46-19.56-62.6-28.34-12.27-5.08-24-11-34.37-19.25-20.41-16.28-16.5-42.72,7.4-53.19,6.77-3,13.85-3.91,21-4.33a159.67,159.67,0,0,1,79.1,15.65c12.48,6,16.6,4.12,20.83-8.88,4.44-13.75,8.15-27.71,12.27-41.56,2.75-9.31-.64-15.44-9.41-19.35a201,201,0,0,0-49.91-14.91c-22.63-3.49-22.63-3.6-22.74-26.33-.1-32-.1-32-32.25-32-4.65,0-9.31-.11-14,0-15,.42-17.55,3.06-18,18.18-.21,6.77,0,13.54-.1,20.41-.11,20.09-.21,19.78-19.46,26.76-46.53,16.92-75.29,48.64-78.36,99.4-2.75,44.94,20.73,75.29,57.64,97.39,22.73,13.64,47.9,21.68,72,32.36,9.41,4.12,18.4,8.88,26.22,15.43,23.16,19.14,18.93,51-8.56,63-14.7,6.45-30.25,8-46.21,6-24.64-3.07-48.22-9.52-70.43-21.05-13-6.76-16.81-5-21.25,9.1-3.81,12.16-7.2,24.42-10.58,36.69-4.55,16.5-2.85,20.41,12.9,28.13,20.09,9.73,41.56,14.7,63.45,18.19,17.13,2.75,17.66,3.49,17.87,21.25.11,8,.11,16.18.21,24.22.11,10.15,5,16.07,15.44,16.28,11.84.21,23.79.21,35.64-.1,9.72-.22,14.69-5.5,14.69-15.34,0-11,.53-22.1.11-33.09-.53-11.21,4.34-16.92,15.12-19.88,24.85-6.77,46-20.1,62.29-40C408.52,348.48,391.29,268,327.21,232.58Z"/></svg>