<svg id="Слой_1" data-name="Слой 1" xmlns="http://www.w3.org/2000/svg" viewBox="0 0 112 112"><defs><style>.cls-1{fill:#fff;}</style></defs><title>logo</title><path class="cls-1" d="M0,111.94c.06-.1.12-.2.17-.3q2.46-4.9,4.91-9.83a.4.4,0,0,1,.47-.25l5.28.52,5,.51,4.46.43,4.47.44,3.85.37,3.89.39,3.85.37,3.89.38,3.85.38,3.89.38,3.85.37,3.89.39,3.85.37,3.89.39,3.24.31,3.92.39,3.85.37,3.89.38,3.82.38,3.94.39,3.86.37,3.88.38,3.86.38,3.88.38,3.86.37,3.88.39a15,15,0,0,0,1.78.08L11,90.07c3-6,6-11.95,9-17.94l.27.11,78.35,33.94,11,4.79c.5.22,1,.49,1.5.71a4.21,4.21,0,0,0,.74.16.54.54,0,0,1,.16.1s0,0,0,0a1.77,1.77,0,0,1-.23,0Q56,112,.26,112A1.19,1.19,0,0,1,0,111.94Z"/><path class="cls-1" d="M111.78,111.7,56,37.58l-4.62,9.25L39.15,33.7,56,0q27.94,55.88,55.83,111.67Z"/><path class="cls-1" d="M24.77,62.46l9-17.94,78,67.26,0,.06Z"/></svg>