<svg id="Capa_1" data-name="Capa 1" xmlns="http://www.w3.org/2000/svg" viewBox="0 0 512 512"><defs><style>.cls-1{fill:#676cb1;}</style></defs><title>map</title><path class="cls-1" d="M491.43,32.08,346.51,90,169.7,31.76a15.23,15.23,0,0,0-10.27.31l-150,60A15,15,0,0,0,0,106V466a15,15,0,0,0,20.57,13.93L165.5,422l176.73,58.26c.82.28.75.22,1.34.39,1,0,4.2,1.26,9.06-.71l149.94-60A15,15,0,0,0,512,406V46A15,15,0,0,0,491.43,32.08ZM150,395.85l-120,48V116.16l120-48ZM332,281.73l-.51-.07A75.4,75.4,0,0,1,307.87,276a15,15,0,0,0-11.71,27.62c14.69,6.23,31,8.49,35.84,7.95V445.26L180,395.15V210.49a75,75,0,0,1,12.35,1.28A15,15,0,1,0,198,182.31a104.13,104.13,0,0,0-18-1.84V66.74l152,50.11V281.73ZM482,395.85l-120,48V116.16l120-48Z"/><path class="cls-1" d="M84.49,287.54a15,15,0,0,0-19,9.49l-4.74,14.23a15,15,0,0,0,28.46,9.48L94,306.51A15,15,0,0,0,84.49,287.54Z"/><path class="cls-1" d="M125.16,211.32a15,15,0,0,0-21.2.55,100.94,100.94,0,0,0-19,28.41,15,15,0,0,0,27.37,12.27,71.41,71.41,0,0,1,13.34-20A15,15,0,0,0,125.16,211.32Z"/><path class="cls-1" d="M273,243.9c-2.46-4.63-6.52-15.23-16.81-27.52a15,15,0,1,0-23,19.24c7.66,9.16,10.17,16.44,13.34,22.39A15,15,0,1,0,273,243.9Z"/><path class="cls-1" d="M416.83,251.4a15,15,0,0,0-21,2.71,69.28,69.28,0,0,1-17.68,16.15,15,15,0,1,0,16.13,25.29,99.36,99.36,0,0,0,25.3-23.11A15,15,0,0,0,416.83,251.4Z"/><path class="cls-1" d="M442.27,182A15,15,0,0,0,423,190.74l-5.26,14a15,15,0,1,0,28.09,10.53l5.26-14A15,15,0,0,0,442.27,182Z"/></svg>