<svg id="Capa_1" data-name="Capa 1" xmlns="http://www.w3.org/2000/svg" viewBox="0 0 196.08 196.08"><defs><style>.cls-1{fill:#676cb1;}</style></defs><title>power</title><path class="cls-1" d="M168.46,69.59,153.69,58.7l.55-.74a7.48,7.48,0,0,0-1.59-10.48L137.89,36.59,139.08,35a7.5,7.5,0,0,0-1.59-10.49L116.69,9.14a7.5,7.5,0,0,0-10.49,1.59L105,12.35,90.24,1.46A7.5,7.5,0,0,0,79.76,3.05L61.9,27.26,56.74,24.5A7.49,7.49,0,0,0,46.3,28.18L25.17,78a7.5,7.5,0,0,0,.71,7.16L64.6,141.77l-6.15,45.71a7.5,7.5,0,0,0,6.44,8.43,7,7,0,0,0,1,.07,7.49,7.49,0,0,0,7.42-6.5l6.53-48.56a7.48,7.48,0,0,0-1.24-5.24l-38-55.63L56.9,41.6,99,64.1l-5.31,7.21L78.89,60.42A7.5,7.5,0,1,0,70,72.49l20.8,15.34h0l20.79,15.34h0l20.8,15.34a7.49,7.49,0,0,0,8,.55l-1,8.39L125,143.06a7.51,7.51,0,0,0-2,5.49L125.22,189a7.51,7.51,0,0,0,7.49,7.09h.41a7.49,7.49,0,0,0,7.08-7.89l-2-37.28,13.88-15.07a7.46,7.46,0,0,0,1.93-4.18L158.31,96l11.74-15.92A7.5,7.5,0,0,0,168.46,69.59ZM87.38,18l8.73,6.43L84.93,39.58l-9.66-5.17ZM98.3,46.73l15.53-21.06,8.73,6.43L108,51.9Zm18.53,18.43h0l1.11-1.51,11.05-15,8.73,6.44-.51.69,0,.05-22.71,30.8-8.73-6.43ZM135.27,102l-8.74-6.43,18.26-24.77,8.73,6.44L145,88.79h0Z"/></svg>