<svg id="Capa_1" data-name="Capa 1" xmlns="http://www.w3.org/2000/svg" viewBox="0 0 512 512"><defs><style>.cls-1{fill:#676cb1;}</style></defs><title>star</title><path class="cls-1" d="M511.27,197.48a15,15,0,0,0-12.11-10.21l-158-23L270.45,21.11a15,15,0,0,0-26.9,0L172.88,164.29l-160,23a15,15,0,0,0-8.25,25.67L120.87,324.4l-27,157.32a15,15,0,0,0,21.76,15.81L257,423.22l141.35,74.31a15,15,0,0,0,21.76-15.81l-27-157.4L507.47,212.86A15,15,0,0,0,511.27,197.48ZM366.53,308.34a15,15,0,0,0-4.31,13.28l23.19,135.21L264,393a15,15,0,0,0-14,0L128.59,456.83l23.19-135.21a15,15,0,0,0-4.4-13.36L47.6,212.59,185,192.86a15,15,0,0,0,11.32-8.2L257,61.65l60.71,123a15,15,0,0,0,11.3,8.2l135.76,19.73Z"/></svg>