<svg id="Capa_1" data-name="Capa 1" xmlns="http://www.w3.org/2000/svg" viewBox="0 0 512 512"><defs><style>.cls-1{fill:#fff;}</style></defs><title>time</title><path class="cls-1" d="M433,59.51h30a21.46,21.46,0,0,0,21.46-21.46V21.47A21.46,21.46,0,0,0,463,0H49.05A21.46,21.46,0,0,0,27.59,21.47V38.05A21.46,21.46,0,0,0,49.05,59.51H79c2.27,79.65,34.05,152.4,83.17,194C111.88,296.07,79.81,371,79,453.35H49.05a21.46,21.46,0,0,0-21.46,21.47v15.71A21.47,21.47,0,0,0,49.05,512H463a21.47,21.47,0,0,0,21.46-21.47V474.82A21.46,21.46,0,0,0,463,453.35h-29.9c-.82-82.28-32.93-157.25-83.2-199.86C398.93,211.93,430.72,139.16,433,59.51Zm-139.53,212,8,4.11c54.48,26.64,91.19,97.27,92.13,177.8H118.35c1-80.56,37.73-151.16,92.18-177.8l8-4.05a20.36,20.36,0,0,0,0-36.55l-8-3.81c-53.15-26-89.48-94.64-92.13-171.65H393.62c-2.67,77-39,145.64-92.12,171.63l-8,3.88a20.32,20.32,0,0,0,0,36.44Z"/><path class="cls-1" d="M168.66,433.19H354.91c-6.36-45.5-45.41-81.43-93.11-81.43S175.05,387.69,168.66,433.19Z"/><path class="cls-1" d="M325.65,188.18H186c17.16,19.23,41.87,31.65,69.81,31.65S308.46,207.43,325.65,188.18Z"/></svg>