<svg id="Capa_1" data-name="Capa 1" xmlns="http://www.w3.org/2000/svg" viewBox="0 0 512 512"><defs><style>.cls-1{fill:#fff;}</style></defs><title>users</title><path class="cls-1" d="M102.91,205.73a82.65,82.65,0,1,1,82.65,82.65A82.65,82.65,0,0,1,102.91,205.73ZM220.63,294H150.5A106,106,0,0,0,44.68,399.83v85.79L44.9,487l5.92,1.84C106.49,506.19,154.88,512,194.7,512c77.77,0,122.84-22.18,125.63-23.59l5.53-2.8h.59V399.83A106,106,0,0,0,220.63,294ZM326.45,165.29A82.65,82.65,0,1,0,243.8,82.65,82.65,82.65,0,0,0,326.45,165.29Zm35.06,5.64H291.38c-1.67,0-3.3.18-4.95.26A101.64,101.64,0,0,1,264.84,288.8,125.94,125.94,0,0,1,353,388.5c67-2.93,105.68-21.87,108.25-23.17l5.53-2.81h.58V276.75A105.92,105.92,0,0,0,361.51,170.93Z"/></svg>