<svg id="Capa_1" data-name="Capa 1" xmlns="http://www.w3.org/2000/svg" viewBox="0 0 196.34 196.34"><defs><style>.cls-1{fill:#676cb1;}</style></defs><title>vote</title><path class="cls-1" d="M195.77,66.46a7.5,7.5,0,0,0-4.06-4L63.48,9.3a7.5,7.5,0,0,0-9.8,4L.57,141.58a7.5,7.5,0,0,0,4.06,9.8L90.73,187a7.55,7.55,0,0,0,2.87.58,7.32,7.32,0,0,0,2.87-.58L156,162.37a7.48,7.48,0,0,0,4.06-4.06L195.77,72.2A7.51,7.51,0,0,0,195.77,66.46Zm-88.31,99.8,7.65-18.47,18.46,7.65Zm41.65-20.62-35.19-14.58a7.52,7.52,0,0,0-9.8,4.06l-14.57,35.2L17.3,140.39,64.67,26,179,73.39Z"/><polygon class="cls-1" points="133.37 98.04 127.63 84.19 89.23 100.1 82.71 84.36 68.85 90.1 81.11 119.7 133.37 98.04"/></svg>